<svg xmlns="http://www.w3.org/2000/svg" width="40.264" height="66.369" viewBox="0 0 40.264 66.369">
  <g id="Group_4" data-name="Group 4" transform="translate(0)">
    <path id="Path_7" data-name="Path 7" d="M-2162.5-143.344c-.024-.064-1.3-2.972-1.395-3.291s-1.179-3.514-1.426-4.629a25.636,25.636,0,0,1-1.068-6.765,32.35,32.35,0,0,1,.76-7.122,15.807,15.807,0,0,1,2.258-4.9,4.928,4.928,0,0,1,3.361-2.048,5.435,5.435,0,0,1,3.974.805,14.068,14.068,0,0,1,3.063,3.711,19.92,19.92,0,0,1,2.276,6.827,13.6,13.6,0,0,1-.543,6.039c-.56,1.173-1.365,3.326-1.7,3.834a8.6,8.6,0,0,0-.945,3.466,16.64,16.64,0,0,1-.123,1.961Z" transform="translate(2166.391 195.067)" fill=""/>
    <path id="Path_5" data-name="Path 5" d="M-2154.511-143.344c.024-.064,1.3-2.972,1.395-3.291s1.179-3.514,1.426-4.629a25.636,25.636,0,0,0,1.068-6.765,32.333,32.333,0,0,0-.761-7.122,15.8,15.8,0,0,0-2.258-4.9A4.927,4.927,0,0,0-2157-172.1a5.434,5.434,0,0,0-3.974.805,14.069,14.069,0,0,0-3.063,3.711,19.92,19.92,0,0,0-2.276,6.827,13.6,13.6,0,0,0,.543,6.039c.56,1.173,1.365,3.326,1.7,3.834a8.6,8.6,0,0,1,.945,3.466,16.707,16.707,0,0,0,.123,1.961Z" transform="translate(2190.882 172.159)" fill=""/>
    <path id="Path_8" data-name="Path 8" d="M-2110.454,183.549l8.508-2.188a20.783,20.783,0,0,1,2.048,5.619c.35,2.486.49,3.746,0,4.919a4.161,4.161,0,0,1-2.608,2.5,4.63,4.63,0,0,1-3.554,0,5.98,5.98,0,0,1-2.486-2.5,20.519,20.519,0,0,1-1.208-3.239,25.724,25.724,0,0,1-.543-3.414Z" transform="translate(2115.21 -128.391)" fill=""/>
    <path id="Path_6" data-name="Path 6" d="M-2099.581,183.549l-8.508-2.188a20.783,20.783,0,0,0-2.048,5.619c-.35,2.486-.49,3.746,0,4.919a4.161,4.161,0,0,0,2.609,2.5,4.629,4.629,0,0,0,3.553,0,5.981,5.981,0,0,0,2.486-2.5,20.5,20.5,0,0,0,1.208-3.239,25.644,25.644,0,0,0,.543-3.414C-2099.651,184.3-2099.581,183.549-2099.581,183.549Z" transform="translate(2135.088 -151.298)" fill=""/>
  </g>
</svg>
